<?xml version="1.0" encoding="UTF-8"?>
<svg width="197px" height="33px" viewBox="0 0 197 33" version="1.1" xmlns="http://www.w3.org/2000/svg" xmlns:xlink="http://www.w3.org/1999/xlink">
    <title>Tools for Mac</title>
    <g id="Tools-for-Mac" stroke="none" stroke-width="1" fill="none" fill-rule="evenodd">
        <path d="M6.95,32 C7.33333333,32 7.65416667,31.8791667 7.9125,31.6375 C8.17083333,31.3958333 8.3,31.0916667 8.3,30.725 L8.3,30.725 L8.3,16.9 L12.65,16.9 C12.95,16.9 13.2102041,16.8204082 13.4306122,16.6612245 L13.5375,16.575 C13.7791667,16.3583333 13.9,16.0666667 13.9,15.7 C13.9,15.35 13.7791667,15.0625 13.5375,14.8375 C13.2958333,14.6125 13,14.5 12.65,14.5 L12.65,14.5 L1.275,14.5 C0.925,14.5 0.625,14.6083333 0.375,14.825 C0.125,15.0416667 1.42108547e-14,15.325 1.42108547e-14,15.675 C1.42108547e-14,16.0416667 0.125,16.3375 0.375,16.5625 C0.625,16.7875 0.925,16.9 1.275,16.9 L1.275,16.9 L5.625,16.9 L5.625,30.725 C5.625,31.0392857 5.71377551,31.3076531 5.89132653,31.530102 L5.9875,31.6375 C6.22916667,31.8791667 6.55,32 6.95,32 Z M63.95,32 C64.3,32 64.5958333,31.8833333 64.8375,31.65 C65.0791667,31.4166667 65.2,31.125 65.2,30.775 C65.2,30.425 65.0791667,30.1333333 64.8375,29.9 C64.5958333,29.6666667 64.3,29.55 63.95,29.55 L63.95,29.55 L56.9,29.55 L56.9,15.775 C56.9,15.4607143 56.805102,15.1923469 56.6153061,14.969898 L56.5125,14.8625 C56.2541667,14.6208333 55.9583333,14.5 55.625,14.5 C55.225,14.5 54.9,14.6208333 54.65,14.8625 C54.4,15.1041667 54.275,15.4083333 54.275,15.775 L54.275,15.775 L54.275,30.725 C54.275,31.0916667 54.3958333,31.3958333 54.6375,31.6375 C54.8791667,31.8791667 55.1833333,32 55.55,32 L55.55,32 L63.95,32 Z M73.45,32.25 C74.5833333,32.25 75.6125,32.0416667 76.5375,31.625 C77.4625,31.2083333 78.2083333,30.625 78.775,29.875 C79.3416667,29.125 79.625,28.25 79.625,27.25 C79.625,26.3833333 79.4916667,25.6583333 79.225,25.075 C78.9583333,24.4916667 78.575,24.0041667 78.075,23.6125 C77.575,23.2208333 76.9625,22.9 76.2375,22.65 C75.5125,22.4 74.6916667,22.175 73.775,21.975 C73.025,21.7916667 72.3583333,21.5875 71.775,21.3625 C71.1916667,21.1375 70.7375,20.8416667 70.4125,20.475 C70.0875,20.1083333 69.925,19.6416667 69.925,19.075 C69.925,18.5916667 70.0666667,18.1708333 70.35,17.8125 C70.6333333,17.4541667 71.0416667,17.1708333 71.575,16.9625 C72.1083333,16.7541667 72.75,16.65 73.5,16.65 C73.9666667,16.65 74.4541667,16.725 74.9625,16.875 C75.4708333,17.025 75.95,17.2125 76.4,17.4375 C76.85,17.6625 77.2083333,17.9166667 77.475,18.2 C77.6416667,18.3333333 77.8416667,18.4 78.075,18.4 C78.3916667,18.4 78.6708333,18.2708333 78.9125,18.0125 C79.1541667,17.7541667 79.275,17.475 79.275,17.175 C79.275,16.775 79.075,16.4 78.675,16.05 C78.1083333,15.5 77.3666667,15.0625 76.45,14.7375 C75.5333333,14.4125 74.55,14.25 73.5,14.25 C72.35,14.25 71.3166667,14.45 70.4,14.85 C69.4833333,15.25 68.7583333,15.8166667 68.225,16.55 C67.6916667,17.2833333 67.425,18.1583333 67.425,19.175 C67.425,19.925 67.55,20.5833333 67.8,21.15 C68.05,21.7166667 68.4083333,22.2041667 68.875,22.6125 C69.3416667,23.0208333 69.9041667,23.3583333 70.5625,23.625 C71.2208333,23.8916667 71.9666667,24.1 72.8,24.25 C73.7,24.4333333 74.4708333,24.6541667 75.1125,24.9125 C75.7541667,25.1708333 76.2458333,25.4958333 76.5875,25.8875 C76.9291667,26.2791667 77.1,26.775 77.1,27.375 C77.1,27.8583333 76.9333333,28.2833333 76.6,28.65 C76.2666667,29.0166667 75.8208333,29.3083333 75.2625,29.525 C74.7041667,29.7416667 74.0916667,29.85 73.425,29.85 C72.4916667,29.85 71.6791667,29.7 70.9875,29.4 C70.2958333,29.1 69.6333333,28.6583333 69,28.075 C68.7666667,27.8916667 68.5166667,27.8 68.25,27.8 C67.9,27.8 67.6083333,27.925 67.375,28.175 C67.1416667,28.425 67.025,28.7083333 67.025,29.025 C67.025,29.225 67.0708333,29.4208333 67.1625,29.6125 C67.2541667,29.8041667 67.3916667,29.9666667 67.575,30.1 C68.425,30.8666667 69.3166667,31.4166667 70.25,31.75 C71.1833333,32.0833333 72.25,32.25 73.45,32.25 Z M90.975,32 C91.325,32 91.625,31.8791667 91.875,31.6375 C92.125,31.3958333 92.25,31.0916667 92.25,30.725 L92.25,30.725 L92.25,24.325 L98.25,24.325 C98.5642857,24.325 98.8326531,24.2392857 99.055102,24.0678571 L99.1625,23.975 C99.4041667,23.7416667 99.525,23.4666667 99.525,23.15 C99.525,22.8 99.4041667,22.5083333 99.1625,22.275 C98.9208333,22.0416667 98.6166667,21.925 98.25,21.925 L98.25,21.925 L92.25,21.925 L92.25,16.9 L99.375,16.9 C99.6892857,16.9 99.9576531,16.8142857 100.180102,16.6428571 L100.2875,16.55 C100.529167,16.3166667 100.65,16.0416667 100.65,15.725 C100.65,15.375 100.529167,15.0833333 100.2875,14.85 C100.045833,14.6166667 99.7416667,14.5 99.375,14.5 L99.375,14.5 L90.925,14.5 C90.575,14.5 90.275,14.6208333 90.025,14.8625 C89.775,15.1041667 89.65,15.4083333 89.65,15.775 L89.65,15.775 L89.65,30.725 C89.65,31.0916667 89.7708333,31.3958333 90.0125,31.6375 C90.2541667,31.8791667 90.575,32 90.975,32 Z M135.05,31.9875 C135.283333,32.0291667 135.5125,32.0208333 135.7375,31.9625 C135.9625,31.9041667 136.15,31.775 136.3,31.575 C136.516667,31.3083333 136.5875,31.0083333 136.5125,30.675 C136.4375,30.3416667 136.25,30.0916667 135.95,29.925 C135.733333,29.8083333 135.583333,29.6416667 135.5,29.425 C135.416667,29.2083333 135.354167,28.9291667 135.3125,28.5875 C135.270833,28.2458333 135.225,27.8166667 135.175,27.3 C135.158333,26.7166667 135.0375,26.1958333 134.8125,25.7375 C134.5875,25.2791667 134.283333,24.8791667 133.9,24.5375 C133.708333,24.3666667 133.5,24.215625 133.275,24.084375 L133.202,24.046 L133.296429,23.9964286 C133.60119,23.825 133.886905,23.6154762 134.153571,23.3678571 L134.35,23.175 C134.8,22.7083333 135.158333,22.1708333 135.425,21.5625 C135.691667,20.9541667 135.825,20.3166667 135.825,19.65 C135.825,18.65 135.595833,17.7625 135.1375,16.9875 C134.679167,16.2125 134.075,15.6041667 133.325,15.1625 C132.575,14.7208333 131.75,14.5 130.85,14.5 L130.85,14.5 L123.8,14.5 C123.45,14.5 123.15,14.6208333 122.9,14.8625 C122.65,15.1041667 122.525,15.4083333 122.525,15.775 L122.525,15.775 L122.525,30.725 C122.525,31.0916667 122.675,31.3958333 122.975,31.6375 C123.275,31.8791667 123.625,32 124.025,32 C124.375,32 124.65,31.8791667 124.85,31.6375 C125.05,31.3958333 125.15,31.0916667 125.15,30.725 L125.15,30.725 L125.15,25.25 L130.1,25.25 C130.406667,25.25 130.692,25.2793333 130.956,25.338 L131.15,25.3875 C131.466667,25.4791667 131.741667,25.6208333 131.975,25.8125 C132.208333,26.0041667 132.391667,26.25 132.525,26.55 C132.658333,26.85 132.725,27.2083333 132.725,27.625 C132.725,28.525 132.808333,29.25 132.975,29.8 C133.141667,30.35 133.3625,30.7791667 133.6375,31.0875 C133.9125,31.3958333 134.183333,31.6333333 134.45,31.8 C134.616667,31.8833333 134.816667,31.9458333 135.05,31.9875 Z M125.15,16.9 L130.725,16.9 C131.375,16.9 131.9375,17.1708333 132.4125,17.7125 C132.8875,18.2541667 133.125,18.925 133.125,19.725 C133.125,20.3583333 133.0125,20.925 132.7875,21.425 C132.5625,21.925 132.270833,22.3208333 131.9125,22.6125 C131.554167,22.9041667 131.183333,23.0583333 130.8,23.075 L130.8,23.075 L125.15,23.075 L125.15,16.9 Z M161.7,32 C162.083333,32 162.391667,31.8791667 162.625,31.6375 C162.858333,31.3958333 162.975,31.0916667 162.975,30.725 L162.975,30.725 L162.975,15.75 C162.975,15.3833333 162.845833,15.0791667 162.5875,14.8375 C162.329167,14.5958333 162.033333,14.475 161.7,14.475 C161.283333,14.475 160.941667,14.6666667 160.675,15.05 L160.675,15.05 L154.728,23.891 L148.925,15.05 C148.831667,14.9033333 148.706333,14.7833333 148.549,14.69 L148.425,14.625 C148.208333,14.525 148,14.475 147.8,14.475 C147.45,14.475 147.145833,14.6 146.8875,14.85 C146.629167,15.1 146.5,15.4 146.5,15.75 L146.5,15.75 L146.5,30.725 C146.5,31.0916667 146.6125,31.3958333 146.8375,31.6375 C147.0625,31.8791667 147.35,32 147.7,32 C148.066667,32 148.3625,31.8791667 148.5875,31.6375 C148.8125,31.3958333 148.925,31.0916667 148.925,30.725 L148.925,30.725 L148.925,19.284 L153.625,26.6 C153.7125,26.7125 153.821094,26.8132812 153.950781,26.9023437 L154.0875,26.9875 C154.279167,27.0958333 154.466667,27.1416667 154.65,27.125 C154.85,27.1416667 155.041667,27.0958333 155.225,26.9875 C155.408333,26.8791667 155.558333,26.75 155.675,26.6 L155.675,26.6 L160.375,19.443 L160.375,30.725 C160.375,31.0392857 160.463776,31.3076531 160.641327,31.530102 L160.7375,31.6375 C160.979167,31.8791667 161.3,32 161.7,32 Z M179.475,32.1 C179.775,32.1 180.045833,31.9875 180.2875,31.7625 C180.529167,31.5375 180.65,31.2416667 180.65,30.875 C180.65,30.7083333 180.616667,30.5416667 180.55,30.375 L180.55,30.375 L174.275,15.25 C174.175,14.9833333 174.016667,14.775 173.8,14.625 C173.583333,14.475 173.35,14.4 173.1,14.4 C172.833333,14.3833333 172.5875,14.45 172.3625,14.6 C172.1375,14.75 171.966667,14.9666667 171.85,15.25 L171.85,15.25 L165.5,30.6 C165.45,30.75 165.425,30.8833333 165.425,31 C165.441667,31.3166667 165.541667,31.5791667 165.725,31.7875 C165.908333,31.9958333 166.183333,32.1 166.55,32.1 C166.8,32.1 167.025,32.025 167.225,31.875 C167.425,31.725 167.575,31.5166667 167.675,31.25 L167.675,31.25 L169.154,27.7 L176.824,27.7 L178.325,31.25 C178.405,31.45 178.519667,31.6206667 178.669,31.762 L178.7875,31.8625 C178.995833,32.0208333 179.225,32.1 179.475,32.1 Z M175.81,25.3 L170.154,25.3 L172.962,18.562 L175.81,25.3 Z M190.95,32.25 C191.483333,32.25 192.008333,32.2 192.525,32.1 C193.041667,32 193.55,31.8666667 194.05,31.7 C194.55,31.5333333 195.008333,31.3333333 195.425,31.1 C195.775,30.9166667 195.9875,30.6458333 196.0625,30.2875 C196.1375,29.9291667 196.033333,29.575 195.75,29.225 C195.566667,28.975 195.329167,28.8291667 195.0375,28.7875 C194.745833,28.7458333 194.45,28.8 194.15,28.95 C193.666667,29.2166667 193.154167,29.4166667 192.6125,29.55 C192.070833,29.6833333 191.516667,29.75 190.95,29.75 C190.066667,29.75 189.245833,29.6125 188.4875,29.3375 C187.729167,29.0625 187.070833,28.6458333 186.5125,28.0875 C185.954167,27.5291667 185.516667,26.8458333 185.2,26.0375 C184.883333,25.2291667 184.725,24.3 184.725,23.25 C184.725,22.3 184.870833,21.4333333 185.1625,20.65 C185.454167,19.8666667 185.875,19.1875 186.425,18.6125 C186.975,18.0375 187.629167,17.5958333 188.3875,17.2875 C189.145833,16.9791667 190,16.825 190.95,16.825 C191.55,16.825 192.116667,16.9 192.65,17.05 C193.183333,17.2 193.691667,17.4 194.175,17.65 C194.458333,17.8 194.745833,17.8583333 195.0375,17.825 C195.329167,17.7916667 195.566667,17.65 195.75,17.4 C196,17.0833333 196.095833,16.7333333 196.0375,16.35 C195.979167,15.9666667 195.766667,15.6833333 195.4,15.5 C194.75,15.1333333 194.045833,14.85 193.2875,14.65 C192.529167,14.45 191.75,14.35 190.95,14.35 C189.666667,14.35 188.483333,14.5708333 187.4,15.0125 C186.316667,15.4541667 185.370833,16.0708333 184.5625,16.8625 C183.754167,17.6541667 183.129167,18.5958333 182.6875,19.6875 C182.245833,20.7791667 182.025,21.9666667 182.025,23.25 C182.025,24.6833333 182.2625,25.9583333 182.7375,27.075 C183.2125,28.1916667 183.866667,29.1333333 184.7,29.9 C185.533333,30.6666667 186.483333,31.25 187.55,31.65 C188.616667,32.05 189.75,32.25 190.95,32.25 Z" id="TOOLSFORMAC" fill="#000000" fill-rule="nonzero"></path>
        <g id="cog" transform="translate(14.225000, 14.000000)" fill-rule="nonzero">
            <path d="M17.0110887,11.1629032 L15.465121,10.2701613 C15.6211708,9.42813677 15.6211708,8.56460517 15.465121,7.72258065 L17.0110887,6.82983871 C17.1874815,6.72734011 17.2701433,6.51692837 17.2106855,6.32177419 C16.8111354,5.04464759 16.1331431,3.87210526 15.2256048,2.88870968 C15.0880397,2.73886075 14.8650616,2.70420874 14.6885081,2.80524194 L13.1425403,3.69798387 C12.493146,3.1391967 11.74473,2.70713414 10.9360887,2.42419355 L10.9360887,0.64233871 C10.9360253,0.438930934 10.7951602,0.262661145 10.5967742,0.217741935 C9.29175824,-0.0725806452 7.93888692,-0.0725806452 6.63387097,0.217741935 C6.43476395,0.261931318 6.29299602,0.438387142 6.29274194,0.64233871 L6.29274194,2.42782258 C5.48611409,2.71513631 4.73846489,3.14675617 4.08629032,3.7016129 L2.5421371,2.80887097 C2.36590484,2.70611929 2.14177776,2.74094984 2.00504032,2.89233871 C1.0959871,3.87461779 0.417786394,5.04752065 0.0199596774,6.32540323 C-0.0410735941,6.52061647 0.0419692491,6.73199825 0.219556452,6.83346774 L1.76552419,7.72620968 C1.60947432,8.5682342 1.60947432,9.4317658 1.76552419,10.2737903 L0.219556452,11.1665323 C0.0428408384,11.2687535 -0.0399234096,11.4794261 0.0199596774,11.6745968 C0.419287252,12.9518211 1.09730634,14.1244098 2.00504032,15.1076613 C2.14260542,15.2575102 2.36558356,15.2921622 2.5421371,15.191129 L4.08810484,14.2983871 C4.73735422,14.8573785 5.48581081,15.2894644 6.29455645,15.5721774 L6.29455645,17.3576613 C6.29481054,17.5616129 6.43657846,17.7380687 6.63568548,17.7822581 C7.94070144,18.0725806 9.29357276,18.0725806 10.5985887,17.7822581 C10.7976957,17.7380687 10.9394637,17.5616129 10.9397177,17.3576613 L10.9397177,15.5721774 C11.7463082,15.2847828 12.4939434,14.853171 13.1461694,14.2983871 L14.6921371,15.191129 C14.8683968,15.2937355 15.0924262,15.2589201 15.2292339,15.1076613 C16.1384258,14.1254845 16.8166456,12.9525485 17.2143145,11.6745968 C17.271533,11.4776288 17.1878555,11.2669408 17.0110887,11.1629032 L17.0110887,11.1629032 Z M8.61350806,12.4766129 C6.69142352,12.4766129 5.13326613,10.9184555 5.13326613,8.99637097 C5.13326613,7.07428642 6.69142352,5.51612903 8.61350806,5.51612903 C10.5355926,5.51612903 12.09375,7.07428642 12.09375,8.99637097 C12.0938463,9.91941803 11.7272099,10.8046871 11.074517,11.45738 C10.4218242,12.1100728 9.53655512,12.4767092 8.61350806,12.4766129 L8.61350806,12.4766129 Z" id="Shape" fill="#FF4669"></path>
            <path d="M8.61350806,11.3153226 C7.33278645,11.3153226 6.29455645,10.2770926 6.29455645,8.99637097 C6.29455645,7.71564936 7.33278645,6.67741935 8.61350806,6.67741935 C9.89422968,6.67741935 10.9324597,7.71564936 10.9324597,8.99637097 C10.9324597,10.2770926 9.89422968,11.3153226 8.61350806,11.3153226 L8.61350806,11.3153226 Z" id="Path" fill="#000000"></path>
        </g>
        <g id="cog" transform="translate(34.225000, 14.000000)" fill-rule="nonzero">
            <path d="M17.0110887,11.1629032 L15.465121,10.2701613 C15.6211708,9.42813677 15.6211708,8.56460517 15.465121,7.72258065 L17.0110887,6.82983871 C17.1874815,6.72734011 17.2701433,6.51692837 17.2106855,6.32177419 C16.8111354,5.04464759 16.1331431,3.87210526 15.2256048,2.88870968 C15.0880397,2.73886075 14.8650616,2.70420874 14.6885081,2.80524194 L13.1425403,3.69798387 C12.493146,3.1391967 11.74473,2.70713414 10.9360887,2.42419355 L10.9360887,0.64233871 C10.9360253,0.438930934 10.7951602,0.262661145 10.5967742,0.217741935 C9.29175824,-0.0725806452 7.93888692,-0.0725806452 6.63387097,0.217741935 C6.43476395,0.261931318 6.29299602,0.438387142 6.29274194,0.64233871 L6.29274194,2.42782258 C5.48611409,2.71513631 4.73846489,3.14675617 4.08629032,3.7016129 L2.5421371,2.80887097 C2.36590484,2.70611929 2.14177776,2.74094984 2.00504032,2.89233871 C1.0959871,3.87461779 0.417786394,5.04752065 0.0199596774,6.32540323 C-0.0410735941,6.52061647 0.0419692491,6.73199825 0.219556452,6.83346774 L1.76552419,7.72620968 C1.60947432,8.5682342 1.60947432,9.4317658 1.76552419,10.2737903 L0.219556452,11.1665323 C0.0428408384,11.2687535 -0.0399234096,11.4794261 0.0199596774,11.6745968 C0.419287252,12.9518211 1.09730634,14.1244098 2.00504032,15.1076613 C2.14260542,15.2575102 2.36558356,15.2921622 2.5421371,15.191129 L4.08810484,14.2983871 C4.73735422,14.8573785 5.48581081,15.2894644 6.29455645,15.5721774 L6.29455645,17.3576613 C6.29481054,17.5616129 6.43657846,17.7380687 6.63568548,17.7822581 C7.94070144,18.0725806 9.29357276,18.0725806 10.5985887,17.7822581 C10.7976957,17.7380687 10.9394637,17.5616129 10.9397177,17.3576613 L10.9397177,15.5721774 C11.7463082,15.2847828 12.4939434,14.853171 13.1461694,14.2983871 L14.6921371,15.191129 C14.8683968,15.2937355 15.0924262,15.2589201 15.2292339,15.1076613 C16.1384258,14.1254845 16.8166456,12.9525485 17.2143145,11.6745968 C17.271533,11.4776288 17.1878555,11.2669408 17.0110887,11.1629032 L17.0110887,11.1629032 Z M8.61350806,12.4766129 C6.69142352,12.4766129 5.13326613,10.9184555 5.13326613,8.99637097 C5.13326613,7.07428642 6.69142352,5.51612903 8.61350806,5.51612903 C10.5355926,5.51612903 12.09375,7.07428642 12.09375,8.99637097 C12.0938463,9.91941803 11.7272099,10.8046871 11.074517,11.45738 C10.4218242,12.1100728 9.53655512,12.4767092 8.61350806,12.4766129 L8.61350806,12.4766129 Z" id="Shape" fill="#FF4669"></path>
            <path d="M8.61350806,11.3153226 C7.33278645,11.3153226 6.29455645,10.2770926 6.29455645,8.99637097 C6.29455645,7.71564936 7.33278645,6.67741935 8.61350806,6.67741935 C9.89422968,6.67741935 10.9324597,7.71564936 10.9324597,8.99637097 C10.9324597,10.2770926 9.89422968,11.3153226 8.61350806,11.3153226 L8.61350806,11.3153226 Z" id="Path" fill="#000000"></path>
        </g>
        <g id="cog" transform="translate(102.225000, 14.000000)" fill-rule="nonzero">
            <path d="M17.0110887,11.1629032 L15.465121,10.2701613 C15.6211708,9.42813677 15.6211708,8.56460517 15.465121,7.72258065 L17.0110887,6.82983871 C17.1874815,6.72734011 17.2701433,6.51692837 17.2106855,6.32177419 C16.8111354,5.04464759 16.1331431,3.87210526 15.2256048,2.88870968 C15.0880397,2.73886075 14.8650616,2.70420874 14.6885081,2.80524194 L13.1425403,3.69798387 C12.493146,3.1391967 11.74473,2.70713414 10.9360887,2.42419355 L10.9360887,0.64233871 C10.9360253,0.438930934 10.7951602,0.262661145 10.5967742,0.217741935 C9.29175824,-0.0725806452 7.93888692,-0.0725806452 6.63387097,0.217741935 C6.43476395,0.261931318 6.29299602,0.438387142 6.29274194,0.64233871 L6.29274194,2.42782258 C5.48611409,2.71513631 4.73846489,3.14675617 4.08629032,3.7016129 L2.5421371,2.80887097 C2.36590484,2.70611929 2.14177776,2.74094984 2.00504032,2.89233871 C1.0959871,3.87461779 0.417786394,5.04752065 0.0199596774,6.32540323 C-0.0410735941,6.52061647 0.0419692491,6.73199825 0.219556452,6.83346774 L1.76552419,7.72620968 C1.60947432,8.5682342 1.60947432,9.4317658 1.76552419,10.2737903 L0.219556452,11.1665323 C0.0428408384,11.2687535 -0.0399234096,11.4794261 0.0199596774,11.6745968 C0.419287252,12.9518211 1.09730634,14.1244098 2.00504032,15.1076613 C2.14260542,15.2575102 2.36558356,15.2921622 2.5421371,15.191129 L4.08810484,14.2983871 C4.73735422,14.8573785 5.48581081,15.2894644 6.29455645,15.5721774 L6.29455645,17.3576613 C6.29481054,17.5616129 6.43657846,17.7380687 6.63568548,17.7822581 C7.94070144,18.0725806 9.29357276,18.0725806 10.5985887,17.7822581 C10.7976957,17.7380687 10.9394637,17.5616129 10.9397177,17.3576613 L10.9397177,15.5721774 C11.7463082,15.2847828 12.4939434,14.853171 13.1461694,14.2983871 L14.6921371,15.191129 C14.8683968,15.2937355 15.0924262,15.2589201 15.2292339,15.1076613 C16.1384258,14.1254845 16.8166456,12.9525485 17.2143145,11.6745968 C17.271533,11.4776288 17.1878555,11.2669408 17.0110887,11.1629032 L17.0110887,11.1629032 Z M8.61350806,12.4766129 C6.69142352,12.4766129 5.13326613,10.9184555 5.13326613,8.99637097 C5.13326613,7.07428642 6.69142352,5.51612903 8.61350806,5.51612903 C10.5355926,5.51612903 12.09375,7.07428642 12.09375,8.99637097 C12.0938463,9.91941803 11.7272099,10.8046871 11.074517,11.45738 C10.4218242,12.1100728 9.53655512,12.4767092 8.61350806,12.4766129 L8.61350806,12.4766129 Z" id="Shape" fill="#FF4669"></path>
            <path d="M8.61350806,11.3153226 C7.33278645,11.3153226 6.29455645,10.2770926 6.29455645,8.99637097 C6.29455645,7.71564936 7.33278645,6.67741935 8.61350806,6.67741935 C9.89422968,6.67741935 10.9324597,7.71564936 10.9324597,8.99637097 C10.9324597,10.2770926 9.89422968,11.3153226 8.61350806,11.3153226 L8.61350806,11.3153226 Z" id="Path" fill="#000000"></path>
        </g>
    </g>
</svg>
